<svg width="222" height="41" viewBox="0 0 222 41" fill="none" xmlns="http://www.w3.org/2000/svg">
<rect y="1" width="80" height="40" rx="2" fill="#007E66"/>
<path d="M12.51 27.42H16.38V22.11H21.48V18.66H16.38V13.38H12.51V18.66H7.35V22.11H12.51V27.42ZM31.3371 10.2L23.9271 12.63L24.8871 16.2L28.6371 15V30H32.6871V10.2H31.3371ZM37.7081 19.95C37.7081 25.8 40.3481 30.36 45.5681 30.36C50.7581 30.36 53.3981 25.8 53.3981 19.95C53.3981 16.92 52.7381 14.49 51.3881 12.63C50.0681 10.77 48.1181 9.84 45.5681 9.84C43.0181 9.84 41.0681 10.77 39.7181 12.63C38.3681 14.49 37.7081 16.92 37.7081 19.95ZM49.2281 19.98C49.2281 24.39 47.9981 26.61 45.5681 26.61C43.1081 26.61 41.8781 24.39 41.8781 19.98C41.8781 15.78 43.0181 13.59 45.5681 13.59C48.0881 13.59 49.2281 15.78 49.2281 19.98ZM57.3511 19.95C57.3511 25.8 59.9911 30.36 65.2111 30.36C70.4011 30.36 73.0411 25.8 73.0411 19.95C73.0411 16.92 72.3811 14.49 71.0311 12.63C69.7111 10.77 67.7611 9.84 65.2111 9.84C62.6611 9.84 60.7111 10.77 59.3611 12.63C58.0111 14.49 57.3511 16.92 57.3511 19.95ZM68.8711 19.98C68.8711 24.39 67.6411 26.61 65.2111 26.61C62.7511 26.61 61.5211 24.39 61.5211 19.98C61.5211 15.78 62.6611 13.59 65.2111 13.59C67.7311 13.59 68.8711 15.78 68.8711 19.98Z" fill="white"/>
<path d="M98.8 30L92.71 21.93L98.32 15.15H93.73L88.12 22.08V15.15H84.1V30H88.12V22.14L94 30H98.8ZM102.981 15.15L102.951 18.69C102.891 24.51 102.261 26.73 100.611 26.73C100.401 26.73 100.191 26.7 100.041 26.67V30C100.491 30.18 101.001 30.27 101.571 30.27C105.321 30.18 106.521 27.3 106.731 19.71L106.761 18.57H110.751V30H114.771V15.15H102.981ZM131.907 14.82L123.597 23.25V15.15H119.577V30.36H120.897L129.177 21.96V30H133.227V14.82H131.907ZM151.579 23.94C151.759 23.19 151.849 22.44 151.849 21.72C151.849 17.85 148.969 14.82 144.859 14.82C140.569 14.73 136.999 18.3 137.089 22.59C136.999 26.88 140.629 30.45 145.219 30.36C147.409 30.36 149.389 29.61 151.159 28.14L149.479 25.38C148.189 26.37 146.809 26.88 145.339 26.88C143.179 26.88 141.649 25.83 141.169 23.94H151.579ZM141.169 21.09C141.619 19.26 142.999 18.09 144.709 18.09C146.479 18.09 147.889 19.26 147.919 21.09H141.169ZM155.699 30H159.719V24.03H165.209V30H169.229V15.15H165.209V20.58H159.719V15.15H155.699V30ZM176.904 30H180.924V18.57H185.514V15.15H172.344V18.57H176.904V30ZM187.698 22.56C187.608 26.79 191.268 30.42 195.618 30.33C199.968 30.42 203.718 26.79 203.628 22.56C203.718 18.33 199.998 14.76 195.648 14.82C191.298 14.73 187.608 18.33 187.698 22.56ZM199.488 22.59C199.488 24.9 197.838 26.61 195.648 26.61C193.398 26.61 191.808 24.9 191.808 22.59C191.808 20.22 193.398 18.51 195.648 18.51C197.838 18.51 199.488 20.28 199.488 22.59ZM220.71 25.47C220.71 23.88 219.84 22.68 218.4 22.05C219.21 21.3 219.6 20.4 219.6 19.32C219.6 16.77 217.41 15.15 214.38 15.15H207.48V30H215.37C218.43 30 220.71 28.14 220.71 25.47ZM211.32 18.18H214.14C215.34 18.18 215.94 18.6 215.94 19.56C215.94 20.49 215.34 20.94 214.14 20.94H211.32V18.18ZM216.99 25.35C216.99 26.34 216.21 27 214.92 27H211.32V23.76H214.92C216.21 23.76 216.99 24.36 216.99 25.35Z" fill="#202020"/>
</svg>
