<svg width="145" height="50" viewBox="0 0 145 50" fill="none" xmlns="http://www.w3.org/2000/svg">
<path fill-rule="evenodd" clip-rule="evenodd" d="M7.25501 2.32106C2.49781 8.66292 0 16.4688 0 24.9961C0 33.5254 2.49781 41.3292 7.25786 47.6746L9.00184 50L72.665 49.8172L136.328 49.6351L138.669 46.0642C144.104 37.7748 146.209 27.405 144.322 18.2114C143.143 12.4666 140.137 5.40415 137.374 1.89113L135.888 0H72.4416H8.99613L7.25501 2.32106ZM136.702 7.32028C140.086 13.1772 141.299 18.0464 141.282 25.7102C141.265 33.0991 139.783 38.4997 136.346 43.696L134.544 46.4213H72.2553H9.96698L7.72188 42.3148C4.10544 35.6987 3.00894 30.8252 3.35873 22.9343C3.67141 15.9075 5.03703 11.4068 8.52783 5.9005L9.99411 3.58872L72.2646 3.57944L134.535 3.57087L136.702 7.32028ZM42.7998 14.6084C41.1629 16.2453 41.0472 16.8538 41.0472 23.8055C41.0472 30.5059 40.9016 31.3472 39.5888 32.2292C38.2946 33.0984 38.2232 33.4733 38.9528 35.5537C39.6266 37.4734 40.0521 37.8191 41.3035 37.462C42.1444 37.2213 43.715 36.0815 44.795 34.9274C46.6782 32.9148 46.7582 32.5256 46.7582 25.3417V17.8543H49.2567H51.7552V27.4957V37.137H54.6107H57.4661V24.9961V12.8551H51.0092C45.1048 12.8551 44.4017 13.0051 42.7998 14.6084ZM111.72 14.4142C108.266 16.7409 106.725 20.1368 106.724 25.426C106.722 33.2155 111.252 37.4513 119.046 36.9513C124.018 36.6321 126.428 35.0666 128.721 30.6673C130.625 27.0129 130.579 22.6564 128.592 18.5685C126.72 14.7141 124.217 13.2779 118.862 12.9851C114.913 12.7694 113.844 12.9837 111.72 14.4142ZM18.6012 15.1569C17.7203 16.4146 17.4897 18.8742 17.4897 27.0115V37.2791L23.8631 37.0292C32.019 36.7099 34.1584 35.4023 34.4797 30.5402C34.7981 25.7245 32.6215 23.4585 27.2475 23.0121L23.2006 22.6764V20.2654V17.8543H28.5546H33.9086V15.7118V13.5693H26.8106C20.2845 13.5693 19.6227 13.6971 18.6012 15.1569ZM71.0346 14.8498C70.0894 15.6161 67.7958 20.3518 65.3294 26.6337L61.2046 37.137H64.0123C66.5458 37.137 66.9213 36.8935 67.8629 34.6374C68.8994 32.1564 68.9408 32.1378 73.3946 32.1378C77.8741 32.1378 77.8827 32.1414 78.785 34.6374C79.6088 36.9178 79.935 37.137 82.4978 37.137C84.0426 37.137 85.3069 36.9206 85.3069 36.6571C85.3069 36.3929 83.328 31.0901 80.9095 24.8732C76.7241 14.1128 76.4185 13.5693 74.5639 13.5693C73.4924 13.5693 71.9041 14.1456 71.0346 14.8498ZM91.3426 15.3226C89.6479 17.0173 89.5901 17.408 89.5901 27.1065V37.137H92.4455H95.301V27.4957V17.8543H99.9411H104.581V15.7118V13.5693H98.8382C93.6919 13.5693 92.9124 13.7514 91.3426 15.3226ZM122.007 19.3377C123.503 21.1153 123.856 22.2808 123.856 25.4403C123.856 30.2574 121.786 32.852 117.945 32.852C113.478 32.852 110.889 27.8792 112.411 22.2251C113.842 16.9073 118.727 15.4376 122.007 19.3377ZM76.0259 27.3171C76.0266 27.6114 74.8623 27.8528 73.4389 27.8528C70.996 27.8528 70.8732 27.7428 71.2452 25.8888C71.4622 24.8082 72.0118 22.9607 72.4666 21.7823L73.2932 19.6398L74.6589 23.2106C75.4106 25.1746 76.0259 27.0229 76.0259 27.3171ZM28.0549 27.9956C29.2785 29.2197 29.1128 31.9078 27.7822 32.4185C27.1611 32.657 25.8762 32.852 24.9267 32.852C23.3891 32.852 23.2006 32.5406 23.2006 29.9953C23.2006 27.3428 23.3434 27.1386 25.1994 27.1386C26.2988 27.1386 27.5837 27.5242 28.0549 27.9956Z" fill="#828282"/>
</svg>
