<svg width="297" height="72" viewBox="0 0 297 72" fill="none" xmlns="http://www.w3.org/2000/svg">
<g clip-path="url(#clip0)">
<path fill-rule="evenodd" clip-rule="evenodd" d="M159.273 14.0261C159.273 10.2821 156.249 7.34536 152.4 7.34536C148.703 7.34536 145.625 10.2821 145.625 14.0261C145.62 14.9086 145.791 15.7835 146.129 16.6003C146.467 17.4171 146.966 18.1597 147.595 18.7854C148.225 19.4111 148.974 19.9076 149.798 20.2461C150.623 20.5847 151.507 20.7587 152.4 20.7581C156.249 20.7581 159.273 17.8227 159.273 14.0261ZM176.876 14.0261C176.876 10.2821 173.797 7.34536 170 7.34536C169.11 7.33949 168.228 7.50819 167.404 7.84168C166.581 8.17517 165.832 8.66682 165.202 9.28818C164.572 9.90953 164.073 10.6482 163.734 11.4615C163.395 12.2748 163.223 13.1465 163.227 14.0261C163.227 17.8227 166.254 20.7581 170 20.7581C173.797 20.7581 176.876 17.8227 176.876 14.0261Z" fill="#828282"/>
<path fill-rule="evenodd" clip-rule="evenodd" d="M111.685 36.7961L120.356 26.5195C121.022 25.8631 120.613 24.9507 119.688 24.9507H113.174C112.557 24.9507 111.941 25.2055 111.428 25.8119L105.474 33.5076V26.3187C105.474 25.4048 105.015 24.9507 104.09 24.9507H99.3689C98.4442 24.9507 97.9819 25.4062 97.9819 26.3187V50.1064C97.9819 51.0174 98.4442 51.4757 99.3689 51.4757H104.09C105.015 51.4757 105.474 51.0174 105.474 50.1077V41.4525L113.325 50.5619C113.789 51.1213 114.25 51.4757 114.917 51.4757H121.792C122.667 51.4757 122.973 50.6131 122.512 49.9554L111.685 36.7961ZM163.592 24.9562H158.564C157.588 24.9562 157.128 25.4104 157.128 26.3215V50.1119C157.128 51.023 157.588 51.4799 158.564 51.4799H163.592C164.567 51.4799 164.976 51.023 164.976 50.1119V26.3215C164.976 25.4104 164.567 24.9562 163.592 24.9562Z" fill="#828282"/>
<path fill-rule="evenodd" clip-rule="evenodd" d="M297 24.9563V51.48H274.169V24.9563H297Z" fill="white"/>
<path fill-rule="evenodd" clip-rule="evenodd" d="M286.073 37.926H282.017V31.086H285.97C291.253 31.086 291.616 37.926 286.073 37.926ZM286.636 24.9591L275.605 24.9563C274.63 24.9563 274.169 25.4105 274.169 26.3215V50.1134C274.169 51.0231 274.63 51.48 275.605 51.48H280.633C281.608 51.48 282.017 51.0231 282.017 50.1134V43.7968H286.329C292.384 43.7968 297 40.5194 297 34.5974C297 28.6643 292.28 24.9605 286.636 24.9605V24.9591Z" fill="#828282"/>
<path fill-rule="evenodd" clip-rule="evenodd" d="M244.319 24.9564H224.749C223.825 24.9564 223.361 25.3621 223.361 26.3216V30.9324C223.361 31.8933 223.825 32.3502 224.749 32.3502H230.606V50.1121C230.606 51.0232 231.069 51.4801 232.044 51.4801H237.075C238.048 51.4801 238.46 51.0232 238.46 50.1121V32.3502H244.319C245.241 32.3502 245.703 31.8933 245.703 30.9324V26.3216C245.703 25.3621 245.241 24.9564 244.319 24.9564ZM184.983 45.5609H178.518V40.6012H184.983C188.934 40.6012 189.19 45.5609 184.983 45.5609ZM178.518 30.8812H183.392C186.522 30.8812 186.572 34.9796 183.392 34.9796H178.518V30.8812ZM190.731 37.0067C195.502 32.5012 192.323 24.9592 184.983 24.9592L172.67 24.9564C171.693 24.9564 171.232 25.4106 171.232 26.3216V50.1121C171.232 51.0232 171.693 51.4801 172.67 51.4801H186.216C195.811 51.4801 198.375 40.6012 190.731 37.0067ZM149.785 24.9509L143.678 24.955L132.507 40.219V26.3175C132.507 25.4064 132.098 24.9509 131.121 24.9509H126.54C125.564 24.9509 125.104 25.4064 125.104 26.3175V50.1066C125.104 51.0176 125.565 51.4746 126.54 51.4746H132.494L143.819 36.5152V50.1066C143.819 51.0176 144.227 51.4746 145.202 51.4746H149.785C150.76 51.4746 151.221 51.0176 151.221 50.1066V26.3175C151.221 25.4064 150.76 24.9509 149.785 24.9509ZM210.757 45.3102C206.751 45.3102 203.514 42.1713 203.514 38.2238C203.514 34.3261 206.751 31.1373 210.705 31.1373C213.016 31.1373 215.328 32.1509 216.562 33.2641C217.124 33.7695 217.537 34.1239 218.41 33.2641L221.441 30.3301C221.852 29.9244 222.006 29.2653 221.286 28.6076C218.359 25.9256 215.071 24.1533 210.757 24.1533C202.845 24.1533 196.426 30.4298 196.426 38.2238C196.426 46.0192 202.845 52.3469 210.705 52.3469C215.071 52.3469 218.359 50.5746 221.286 47.8912C222.006 47.2349 221.852 46.5758 221.441 46.1715L218.41 43.2361C217.537 42.3749 217.124 42.7293 216.562 43.2361C215.328 44.3493 213.016 45.3102 210.757 45.3102ZM255.028 41.0539L257.764 33.2558H257.772L260.508 41.0553H255.028V41.0539ZM271.613 50.1606L262.391 25.9658C262.18 25.3275 261.665 24.955 260.874 24.955H254.659C253.868 24.955 253.356 25.3275 253.141 25.9658L243.921 50.1606C243.642 50.8889 244.061 51.4815 244.848 51.4815H250.51C250.983 51.4815 251.496 51.1215 251.65 50.6784L252.894 47.1296H262.638L263.884 50.6798C263.976 50.9076 264.132 51.1044 264.334 51.2466C264.536 51.3888 264.776 51.4703 265.023 51.4815H270.685C271.472 51.4815 271.892 50.8889 271.613 50.1606Z" fill="#888888"/>
<path fill-rule="evenodd" clip-rule="evenodd" d="M33.0259 0H42.7765V27.4029H33.0259V0Z" fill="white"/>
<path fill-rule="evenodd" clip-rule="evenodd" d="M37.9011 27.4029C37.2596 27.4018 36.6246 27.2759 36.0325 27.0322C35.4403 26.7885 34.9025 26.432 34.4497 25.9828C33.997 25.5337 33.6382 25.0008 33.3939 24.4146C33.1496 23.8285 33.0245 23.2004 33.0258 22.5665V4.83508C33.0247 4.20122 33.1499 3.57335 33.3943 2.98732C33.6387 2.40129 33.9975 1.86858 34.4502 1.4196C34.9029 0.970622 35.4407 0.614169 36.0328 0.370593C36.6249 0.127018 37.2597 0.00109004 37.9011 0C38.5424 0.00109004 39.1772 0.127018 39.7693 0.370593C40.3614 0.614169 40.8992 0.970622 41.3519 1.4196C41.8046 1.86858 42.1634 2.40129 42.4078 2.98732C42.6522 3.57335 42.7774 4.20122 42.7763 4.83508V22.5665C42.7776 23.2004 42.6525 23.8285 42.4082 24.4146C42.1639 25.0008 41.8051 25.5337 41.3524 25.9828C40.8996 26.432 40.3618 26.7885 39.7696 27.0322C39.1775 27.2759 38.5425 27.4018 37.9011 27.4029Z" fill="black"/>
<path fill-rule="evenodd" clip-rule="evenodd" d="M0 38.9492V23.7974H26.7524V38.952H0V38.9492Z" fill="white"/>
<path fill-rule="evenodd" clip-rule="evenodd" d="M26.5128 35.6081C26.3164 36.211 26.0016 36.7698 25.5863 37.2523C25.1711 37.7348 24.6636 38.1316 24.0929 38.42C23.5223 38.7083 22.8997 38.8826 22.2608 38.9328C21.6219 38.983 20.9792 38.9081 20.3697 38.7124L3.36923 33.2321C2.13795 32.8323 1.11719 31.9665 0.530569 30.8243C-0.0560547 29.6821 -0.160712 28.3567 0.239524 27.1384C0.435624 26.5352 0.750284 25.9763 1.16546 25.4936C1.58063 25.0108 2.08814 24.6139 2.65888 24.3255C3.22962 24.0371 3.85236 23.8629 4.49138 23.8129C5.13039 23.7629 5.77311 23.838 6.38266 24.0341L23.3817 29.513C24.6138 29.9122 25.6354 30.7781 26.2224 31.9207C26.8094 33.0633 26.9138 34.3894 26.5128 35.6081Z" fill="black"/>
<path fill-rule="evenodd" clip-rule="evenodd" d="M49.2908 35.6095C49.4869 36.2125 49.8015 36.7713 50.2166 37.2539C50.6317 37.7365 51.139 38.1334 51.7096 38.4218C52.2802 38.7102 52.9028 38.8845 53.5416 38.9346C54.1805 38.9847 54.8231 38.9097 55.4325 38.7138L72.433 33.2349C73.6644 32.8355 74.6854 31.9696 75.2718 30.8273C75.8582 29.6849 75.9624 28.3593 75.5613 27.1412C75.3653 26.5381 75.0508 25.9791 74.6358 25.4963C74.2208 25.0136 73.7134 24.6166 73.1428 24.328C72.5722 24.0395 71.9496 23.8651 71.3107 23.8149C70.6718 23.7647 70.0291 23.8397 69.4195 24.0355L52.4191 29.5158C51.1879 29.9156 50.1672 30.7815 49.5808 31.9237C48.9944 33.066 48.8901 34.3914 49.2908 35.6095ZM14.6174 71.0778C13.5697 70.3218 12.8677 69.1864 12.665 67.9201C12.4623 66.6537 12.7755 65.3596 13.5359 64.3209L24.0402 49.9735C24.4148 49.4602 24.8885 49.0251 25.4338 48.6933C25.9792 48.3614 26.5855 48.1394 27.2179 48.0399C27.8504 47.9405 28.4965 47.9655 29.1191 48.1137C29.7418 48.2618 30.3286 48.5302 30.846 48.9032C31.8934 49.6584 32.5953 50.7931 32.7981 52.0588C33.0008 53.3245 32.6877 54.6179 31.9275 55.656L21.4246 70.0061C21.0496 70.5192 20.5758 70.954 20.0303 71.2857C19.4849 71.6173 18.8786 71.8393 18.2462 71.9389C17.6137 72.0384 16.9677 72.0136 16.345 71.8659C15.7223 71.7181 15.1352 71.4503 14.6174 71.0778ZM61.1862 71.0778C62.2337 70.3216 62.9354 69.1861 63.1379 67.9198C63.3403 66.6534 63.0269 65.3594 62.2663 64.3209L51.7649 49.9749C51.3899 49.4615 50.9161 49.0263 50.3705 48.6945C49.8249 48.3626 49.2183 48.1406 48.5856 48.0411C47.953 47.9416 47.3066 47.9667 46.6838 48.1149C46.0609 48.2631 45.4739 48.5315 44.9563 48.9046C43.9097 49.6605 43.2085 50.7952 43.0061 52.0606C42.8037 53.3261 43.1165 54.6192 43.8761 55.6574L54.379 70.0075C54.7541 70.5208 55.228 70.9557 55.7735 71.2875C56.3191 71.6193 56.9255 71.8414 57.5581 71.9409C58.1907 72.0405 58.8369 72.0156 59.4598 71.8678C60.0826 71.7199 60.6698 71.4519 61.1876 71.0792L61.1862 71.0778Z" fill="black"/>
</g>
<defs>
<clipPath id="clip0">
<rect width="297" height="72" fill="white"/>
</clipPath>
</defs>
</svg>
