<svg width="214" height="67" viewBox="0 0 214 67" fill="none" xmlns="http://www.w3.org/2000/svg">
<path fill-rule="evenodd" clip-rule="evenodd" d="M0 33.5C0 14.9913 15.3933 0 34.3806 0C53.3846 0 68.7737 14.9913 68.7737 33.5C68.7737 52.0088 53.3846 67 34.3806 67C30.6314 67 27.0269 66.4137 23.6512 65.3418C26.0954 51.5146 35.0561 40.2377 46.8975 35.4535C47.624 36.2689 48.5161 36.9208 49.5145 37.3659C50.5128 37.811 51.5946 38.0391 52.6881 38.0351C56.9072 38.0351 60.3249 34.6997 60.3249 30.5813C60.3249 26.4671 56.9072 23.1318 52.6881 23.1318C48.4668 23.1318 45.0512 26.4566 45.0407 30.5667C29.9285 34.9949 17.6844 45.2732 11.4721 58.4826C9.50171 56.7694 7.73733 54.8337 6.21439 52.7143C6.57106 39.8503 13.1023 28.609 22.8812 21.9844C23.6063 22.7769 24.4896 23.4093 25.4742 23.8409C26.4588 24.2725 27.523 24.4938 28.5984 24.4906C32.8217 24.4906 36.2415 21.1448 36.2415 17.0368C36.2415 12.9184 32.8217 9.58519 28.5984 9.58519C24.3708 9.58519 20.951 12.9184 20.951 17.0389C20.951 17.2525 20.9657 17.4723 20.9825 17.6775C11.8749 20.7909 4.39749 26.9508 0.0230784 34.7981C0.00209804 34.3752 0 33.9334 0 33.5Z" fill="black"/>
<path fill-rule="evenodd" clip-rule="evenodd" d="M203.048 42.8968V16.8338C203.048 16.4905 202.872 16.3418 202.45 16.3418H195.447C195.038 16.3418 194.862 16.4905 194.862 16.8338V44.7686C194.862 49.7936 197.184 50.6584 202.53 50.6584C202.694 50.6584 202.828 50.6437 202.95 50.5369C203.071 50.4448 203.048 50.1831 203.048 50.1831V42.8968ZM93.3376 42.8926V16.8359C93.3376 16.4946 93.1487 16.3418 92.7375 16.3418H85.7427C85.3315 16.3418 85.1489 16.4946 85.1489 16.8359V44.7665C85.1489 49.7915 87.4715 50.6584 92.8047 50.6584C92.983 50.6584 93.1047 50.6458 93.2348 50.539C93.346 50.4427 93.3376 50.1873 93.3376 50.1873V42.8926ZM110.81 50.6584C110.466 50.6584 110.319 50.5118 110.319 50.1663V31.8355C110.319 31.6387 110.22 31.5424 110.027 31.5424H108.559C108.217 31.5424 108.076 31.4 108.076 31.0525V26.9969C108.076 26.6598 108.217 26.507 108.559 26.507H110.027C110.22 26.507 110.319 26.4106 110.319 26.218V24.5095C110.319 18.7894 112.963 16.3418 118.627 16.3418H122.318C122.662 16.3418 122.813 16.4905 122.813 16.8338V21.2475C122.813 21.595 122.662 21.7353 122.318 21.7353H119.804C117.648 21.7353 117.119 22.2734 117.119 24.2813V26.218C117.119 26.4106 117.215 26.507 117.406 26.507H120.526C120.868 26.507 121.017 26.6598 121.017 26.9969V31.0525C121.017 31.4 120.868 31.5445 120.526 31.5445H117.406C117.215 31.5445 117.119 31.6387 117.119 31.8355V50.1663C117.119 50.5118 116.966 50.6584 116.628 50.6584H110.81ZM97.198 21.2433C96.7909 21.2433 96.6105 21.1114 96.6105 20.7994V16.792C96.6105 16.4779 96.7909 16.3418 97.198 16.3418H104.216C104.621 16.3418 104.799 16.4779 104.799 16.792V20.7994C104.799 21.1135 104.621 21.2433 104.216 21.2433H97.198ZM97.198 50.6584C96.7909 50.6584 96.6105 50.5097 96.6105 50.1579V26.641C96.6105 26.2997 96.7909 26.1468 97.198 26.1468H104.216C104.621 26.1468 104.799 26.2997 104.799 26.641V50.1579C104.799 50.5097 104.621 50.6604 104.216 50.6604H97.198V50.6584ZM149.674 44.0254C149.192 42.6163 149.011 40.7256 149.011 38.3995C149.011 36.0754 149.189 34.1847 149.674 32.784C151.025 28.4709 154.737 26.1468 159.753 26.1468C163.601 26.1468 166.832 27.8951 168.565 30.5542C168.708 30.7991 168.708 31.0399 168.47 31.2367L164.274 33.9921C163.987 34.1847 163.744 34.1429 163.557 33.8979C162.585 32.5432 161.337 31.8628 159.843 31.8628C157.961 31.8628 156.761 32.6898 156.228 34.3815C155.939 35.2023 155.798 36.5653 155.798 38.4015C155.798 40.244 155.939 41.5945 156.228 42.4257C156.761 44.1175 157.961 44.9403 159.843 44.9403C161.337 44.9403 162.585 44.2661 163.557 42.9094C163.746 42.6686 163.987 42.6163 164.274 42.8131L168.47 45.5747C168.708 45.7632 168.708 46.006 168.565 46.2552C166.832 48.908 163.601 50.6584 159.753 50.6584C154.737 50.6584 151.025 48.3322 149.674 44.0254ZM185.96 35.933C186.17 35.933 186.262 35.8346 186.268 35.6441C186.268 35.0118 186.172 34.4297 186.01 33.8979C185.397 32.202 184.128 31.333 181.961 31.333C180.039 31.333 178.279 32.204 177.66 33.8979C177.507 34.4318 177.408 35.0118 177.408 35.6441C177.408 35.8325 177.507 35.933 177.708 35.933H185.96ZM171.114 43.9793C170.552 42.3252 170.3 40.4827 170.3 38.3995C170.3 36.2261 170.493 34.3334 171.064 32.784C172.509 28.5693 176.477 26.1468 181.782 26.1468C187.191 26.1468 191.112 28.6216 192.562 32.738C193.118 34.3815 193.225 36.7998 193.225 39.9572C193.225 40.2922 193.02 40.4346 192.65 40.4346H177.844C177.639 40.4346 177.536 40.5393 177.536 40.7256C177.591 41.2114 177.561 41.6469 177.708 42.0321C178.375 44.1175 180.129 45.1329 182.871 45.1371C184.867 45.1413 186.459 44.5446 187.46 43.8914C188.377 43.2904 188.362 43.0811 188.874 43.4726L192.711 46.0584C193.057 46.295 193.02 46.4939 192.759 46.7326C190.135 49.3519 186.629 50.6584 182.143 50.6584C176.527 50.6584 172.56 48.2338 171.114 43.9793ZM138.473 35.933C138.682 35.933 138.783 35.8346 138.783 35.6441C138.783 35.0118 138.682 34.4297 138.523 33.8979C137.91 32.202 136.643 31.333 134.482 31.333C132.546 31.333 130.794 32.204 130.181 33.8979C130.009 34.464 129.921 35.0524 129.921 35.6441C129.921 35.8325 130.018 35.933 130.232 35.933H138.473ZM123.627 43.9793C123.065 42.3252 122.813 40.4827 122.813 38.3995C122.813 36.2261 123.008 34.3334 123.579 32.784C125.022 28.5693 128.992 26.1468 134.3 26.1468C139.704 26.1468 143.63 28.6216 145.069 32.738C145.633 34.3815 145.736 36.7998 145.736 39.9572C145.736 40.2922 145.533 40.4346 145.174 40.4346H130.36C130.154 40.4346 130.057 40.5393 130.057 40.7256C130.097 41.2114 130.078 41.6469 130.232 42.0321C130.897 44.1175 132.644 45.1329 135.384 45.1371C137.39 45.1413 138.978 44.5446 139.983 43.8914C140.894 43.2904 140.883 43.0811 141.389 43.4726L145.228 46.0584C145.568 46.295 145.537 46.4939 145.283 46.7326C142.648 49.3519 139.15 50.6584 134.667 50.6584C129.042 50.6584 125.068 48.2338 123.627 43.9793ZM212.873 42.8968V16.8338C212.873 16.4905 212.695 16.3418 212.277 16.3418H205.272C204.863 16.3418 204.685 16.4905 204.685 16.8338V44.7686C204.685 49.7936 207.007 50.6584 212.343 50.6584C212.508 50.6584 212.64 50.6437 212.771 50.5369C212.884 50.4448 212.871 50.1831 212.871 50.1831V42.8968H212.873Z" fill="#828282"/>
</svg>
