<svg width="90" height="107" viewBox="0 0 90 107" fill="none" xmlns="http://www.w3.org/2000/svg">
<path fill-rule="evenodd" clip-rule="evenodd" d="M38.5834 54.5378L23.5942 58.4015L31.3815 43.4375L27.1255 29.2147L0 76.8495L58.507 62.7935L22.2189 0L38.5834 54.5378Z" fill="#FC1F49"/>
<path fill-rule="evenodd" clip-rule="evenodd" d="M35.2287 16.4095L64.1476 66.8611L16.1786 78.3227L90 78.2857L42.2818 4.28073L35.2287 16.4095Z" fill="#FC1F49"/>
<path fill-rule="evenodd" clip-rule="evenodd" d="M5.26891 96.085H7.67573C9.14398 96.085 10.1941 95.9182 10.8074 95.5754C11.4207 95.2419 11.7274 94.7137 11.7274 93.991V85.9391C11.7274 85.2813 11.4393 84.7716 10.8538 84.4103C10.2684 84.0489 9.20902 83.8729 7.67573 83.8729H5.26891V96.085ZM0.0371094 81.6213H7.77795C10.7516 81.6213 13.0283 82.0012 14.5988 82.761C16.1693 83.5208 16.9592 84.5771 16.9592 85.9391V93.7593C16.9592 95.3252 16.1321 96.4835 14.4687 97.2247C12.8146 97.966 10.4264 98.3366 7.31331 98.3366H0.0371094V81.6213ZM20.0257 81.6213H35.6189V83.8729H25.2576V88.7837H34.2808V91.0352H25.2576V95.946H35.6189V98.3366H20.0257V81.6213ZM40.1352 81.6213H45.367V95.946H55.7284V98.3366H40.1352V81.6213ZM59.6778 83.8729V98.3366H64.9096V83.8729H70.9592V81.6213H53.6282V83.8729H59.6778ZM77.176 81.6213H81.5343L89.6933 98.3366H84.4615L82.9189 94.7415H75.7914L74.2488 98.3366H69.017L77.176 81.6213ZM79.3876 86.4395H79.2854L76.7206 92.4992H81.9524L79.3876 86.4395Z" fill="#202020"/>
<path fill-rule="evenodd" clip-rule="evenodd" d="M0.0371094 107V101.774H1.15224V102.237C1.56112 101.867 2.10939 101.682 2.81563 101.682C3.60551 101.682 4.23742 101.904 4.72064 102.339C5.12952 102.719 5.33396 103.173 5.33396 103.72C5.33396 104.359 5.06447 104.878 4.5162 105.277L4.23742 105.462C3.81925 105.675 3.34532 105.786 2.81563 105.786C2.2209 105.786 1.70051 105.629 1.26375 105.323V107H0.0371094ZM2.64836 102.543C2.14656 102.543 1.74697 102.701 1.4589 103.007C1.26375 103.21 1.17082 103.451 1.17082 103.72C1.17082 104.137 1.36597 104.461 1.76556 104.693C2.02575 104.841 2.32312 104.915 2.66695 104.915C3.15017 104.915 3.53117 104.758 3.80995 104.452C4.0051 104.248 4.09803 104.007 4.09803 103.729C4.09803 103.322 3.90288 102.997 3.51259 102.756C3.27098 102.617 2.9829 102.543 2.64836 102.543ZM11.0397 104.146H7.12746C7.23897 104.498 7.51775 104.73 7.9638 104.85C8.13107 104.897 8.31692 104.924 8.52136 104.924C8.93024 104.924 9.26478 104.823 9.52498 104.628C9.56215 104.6 9.59932 104.572 9.63649 104.535H10.9561C10.8817 104.711 10.7516 104.887 10.5565 105.082C10.0268 105.555 9.35771 105.786 8.54924 105.786C7.75007 105.786 7.08099 105.573 6.54201 105.147C6.05879 104.758 5.81718 104.294 5.81718 103.748C5.81718 103.155 6.08667 102.654 6.62565 102.256C7.13675 101.876 7.75007 101.682 8.4749 101.682C9.27407 101.682 9.92456 101.904 10.4264 102.349C10.8631 102.738 11.0862 103.22 11.0862 103.794C11.0862 103.915 11.0676 104.035 11.0397 104.146ZM7.09028 103.322H9.88739C9.748 102.858 9.35771 102.599 8.71651 102.552C8.64217 102.543 8.56783 102.543 8.48419 102.543C7.78724 102.543 7.33189 102.775 7.11816 103.247C7.11816 103.266 7.09958 103.294 7.09028 103.322ZM11.7924 105.694V101.774H13.0097V103.618L14.6267 101.774H16.0763L14.2736 103.692L16.3737 105.694H14.7382L13.0097 103.859V105.694H11.7924ZM18.446 101.774H19.4124L21.4475 105.694H20.0722L18.9199 103.099L17.749 105.694H16.4016L18.446 101.774ZM27.0696 101.774V105.694H25.9545V105.184C25.5549 105.536 25.081 105.74 24.5513 105.777C24.4677 105.786 24.3747 105.786 24.2818 105.786C23.4826 105.786 22.8414 105.564 22.3582 105.128C21.9493 104.748 21.7356 104.294 21.7356 103.748C21.7356 103.099 22.0144 102.571 22.572 102.182C23.0459 101.848 23.622 101.691 24.3004 101.691C24.9602 101.691 25.4899 101.867 25.8802 102.228C25.908 102.256 25.9266 102.275 25.9545 102.302V101.774H27.0696ZM24.4305 102.543C23.8915 102.543 23.4919 102.71 23.2132 103.034C23.0366 103.238 22.953 103.488 22.953 103.766C22.953 104.202 23.1667 104.526 23.5942 104.739C23.8358 104.86 24.1238 104.924 24.4491 104.924C24.9323 104.924 25.2947 104.804 25.5549 104.572C25.7779 104.341 25.8987 104.072 25.9173 103.766C25.9173 103.322 25.7129 102.979 25.2947 102.756C25.0531 102.608 24.765 102.543 24.4305 102.543ZM32.924 105.694V103.099L31.5859 105.694H30.6195L29.272 103.099V105.694H28.064V101.774H29.9411L31.112 104.369L32.2643 101.774H34.1507V105.694H32.924ZM39.6148 101.774V105.694H38.3975V104.183H36.3345V105.694H35.1171V101.774H36.3345V103.257H38.4068V101.774H39.6148ZM40.5998 105.694V101.774H41.8172V105.694H40.5998ZM40.5998 101.348V100.468H41.8172V101.348H40.5998ZM45.8688 105.694V102.627H44.9117V101.774H48.192L48.1734 102.627H47.0769V105.694H45.8688ZM53.7119 104.146H49.7996C49.9111 104.498 50.1899 104.73 50.636 104.85C50.8032 104.897 50.9891 104.924 51.1935 104.924C51.6024 104.924 51.937 104.823 52.1971 104.628C52.2343 104.6 52.2715 104.572 52.3087 104.535H53.6282C53.5539 104.711 53.4238 104.887 53.2286 105.082C52.699 105.555 52.0299 105.786 51.2214 105.786C50.4222 105.786 49.7532 105.573 49.2142 105.147C48.731 104.758 48.4894 104.294 48.4894 103.748C48.4894 103.155 48.7588 102.654 49.2978 102.256C49.8089 101.876 50.4222 101.682 51.1471 101.682C51.9462 101.682 52.5967 101.904 53.0985 102.349C53.5353 102.738 53.7583 103.22 53.7583 103.794C53.7583 103.915 53.7397 104.035 53.7119 104.146ZM49.7625 103.322H52.5596C52.4202 102.858 52.0299 102.599 51.3887 102.552C51.3143 102.543 51.24 102.543 51.1564 102.543C50.4594 102.543 50.0041 102.775 49.7903 103.247C49.7903 103.266 49.7717 103.294 49.7625 103.322ZM53.9906 105.694L55.7748 103.674L54.223 101.774H55.589L56.4997 102.951L57.3918 101.774H58.7578L57.2152 103.674L59.0087 105.694H57.5498L56.4904 104.35L55.431 105.694H53.9906ZM64.0268 101.774V105.694H62.8187V104.183H60.7465V105.694H59.5291V101.774H60.7465V103.257H62.8187V101.774H64.0268ZM67.4651 101.682C68.255 101.682 68.9148 101.895 69.4352 102.321C69.9184 102.719 70.16 103.192 70.16 103.757C70.16 104.313 69.8905 104.786 69.3608 105.184C68.8311 105.582 68.1992 105.777 67.4744 105.777C66.731 105.777 66.0898 105.573 65.5601 105.165C65.049 104.767 64.7981 104.285 64.7981 103.729C64.7981 103.155 65.0676 102.673 65.5973 102.275C66.1176 101.876 66.7495 101.682 67.4651 101.682ZM67.4744 102.543C67.019 102.543 66.638 102.682 66.3407 102.979C66.1176 103.192 66.0154 103.442 66.0154 103.72C66.0154 104.118 66.2106 104.443 66.5916 104.684C66.8518 104.841 67.1491 104.924 67.4837 104.924C67.9483 104.924 68.3293 104.776 68.6267 104.48C68.8404 104.267 68.9426 104.016 68.9426 103.738C68.9426 103.359 68.7568 103.044 68.3851 102.803C68.1249 102.627 67.8182 102.543 67.4744 102.543ZM72.446 101.774H73.4124L75.4475 105.694H74.0815L72.9292 103.099L71.7583 105.694H70.4109L72.446 101.774ZM78.4119 101.682C79.2018 101.682 79.8616 101.895 80.382 102.321C80.8652 102.719 81.1068 103.192 81.1068 103.757C81.1068 104.313 80.8373 104.786 80.3076 105.184C79.7779 105.582 79.146 105.777 78.4212 105.777C77.6778 105.777 77.0366 105.573 76.5069 105.165C75.9958 104.767 75.7449 104.285 75.7449 103.729C75.7449 103.155 76.0144 102.673 76.5441 102.275C77.0645 101.876 77.6871 101.682 78.4119 101.682ZM78.4212 102.543C77.9659 102.543 77.5849 102.682 77.2875 102.979C77.0645 103.192 76.9622 103.442 76.9622 103.72C76.9622 104.118 77.1574 104.443 77.5384 104.684C77.7986 104.841 78.096 104.924 78.4305 104.924C78.8951 104.924 79.2761 104.776 79.5735 104.48C79.7872 104.267 79.8895 104.016 79.8895 103.738C79.8895 103.359 79.7036 103.044 79.3319 102.803C79.0624 102.627 78.7557 102.543 78.4212 102.543ZM81.8223 105.694V101.774H85.1027V102.627H83.0304V105.694H81.8223ZM85.6138 105.694V101.774H86.8311V105.694H85.6138ZM85.6138 101.348V100.468H86.8311V101.348H85.6138ZM87.7976 105.694V101.774H89.0149V105.694H87.7976Z" fill="#202020"/>
<path d="M86.8219 100.458H85.6139V101.339H86.8219V100.458Z" fill="#202020"/>
<path d="M88.3181 100.458H87.1007V101.339H88.3181V100.458Z" fill="#202020"/>
<path d="M89.7027 100.458H88.4854V101.339H89.7027V100.458Z" fill="#202020"/>
</svg>
