<svg width="186" height="41" viewBox="0 0 186 41" fill="none" xmlns="http://www.w3.org/2000/svg">
<path fill-rule="evenodd" clip-rule="evenodd" d="M55.2643 0.117604C53.7778 0.401432 50.5235 1.45488 49.3706 2.02502C44.8312 4.27055 42.0303 7.81264 40.5218 13.2151C39.9199 15.3706 39.8932 15.6791 39.8941 20.4422C39.895 26.2809 40.1673 27.6908 42.0399 31.5608C44.4406 36.5216 48.957 39.6405 55.0942 40.5759C60.6117 41.4168 66.5247 40.6117 70.2719 38.5093C72.0069 37.5357 72.5993 37.0653 74.2473 35.3508C77.9303 31.5199 79.5911 25.7268 79.1706 18.1806C79.0499 16.0167 78.8237 14.7844 77.9669 11.622C76.9221 7.76695 73.0347 3.47334 69.0804 1.80701C65.7867 0.419073 64.3643 0.148815 59.982 0.0778011C57.6961 0.0407111 55.5732 0.0585765 55.2643 0.117604ZM168.637 0.211912C163.519 1.07651 159.415 3.63323 157.682 7.03533C156.218 9.91184 156.273 15.1478 157.796 17.8482C159.241 20.4083 162.338 22.4745 166.804 23.8574C172.057 25.484 173.486 26.1468 174.338 27.3516C175.849 29.4888 174.601 31.8831 171.588 32.6238C167.403 33.6523 162.526 32.2251 158.975 28.9329C158.5 28.4921 158.055 28.1316 157.987 28.1316C157.616 28.1316 157.195 30.1709 157.171 32.0894C157.146 34.0164 157.209 34.3711 157.774 35.5301C159.461 38.989 164.143 41.0355 170.286 40.9995C178.471 40.9516 183.518 38.0172 185.466 32.1739C186.005 30.5605 186.047 30.1681 185.971 27.4635C185.912 25.3345 185.786 24.2926 185.519 23.7215C185.315 23.2861 185.08 22.6898 184.995 22.396C184.735 21.4905 181.972 18.8657 180.485 18.1117C178.932 17.3244 176.842 16.5222 175.678 16.2671C174.711 16.0552 172.168 15.2496 170.511 14.6299C168.211 13.7705 167.19 12.0658 167.923 10.3078C168.218 9.59951 168.53 9.32767 169.677 8.7815C170.936 8.1815 171.295 8.11704 173.363 8.11682C176.673 8.11659 180.089 9.23766 181.912 10.9232C182.765 11.7114 182.883 11.6347 183.446 9.92586C184.027 8.16115 183.965 6.44845 183.262 4.90379C181.723 1.51956 178.221 -0.0572166 172.373 0.00158449C170.916 0.0160586 169.235 0.110819 168.637 0.211912ZM0 20.3011V40.231H4.96121H9.92264L9.78784 29.3189C9.71371 23.3171 9.59554 17.3382 9.52545 16.0321C9.45536 14.7261 9.44435 13.7084 9.50096 13.7705C9.5578 13.8327 11.0183 16.6823 12.7467 20.103C19.5485 33.5639 20.4783 35.1592 22.5606 36.9436C25.3807 39.3603 27.3884 40.0182 32.406 40.1695L36.1689 40.2833V20.3508V0.418394L31.3142 0.479232L26.4595 0.540294L26.4956 13.4878C26.5156 20.6091 26.49 26.4354 26.439 26.4354C26.3878 26.4354 26.0129 25.7486 25.6058 24.9088C22.7181 18.9518 17.4485 8.44724 16.9163 7.58648C15.5832 5.43029 12.6753 2.87493 10.4337 1.88978C8.27212 0.939916 6.63374 0.618998 3.31361 0.494837L0 0.371128V20.3011ZM77.7294 0.774369C77.7294 0.947832 78.8123 4.35038 79.4184 6.08117C80.1179 8.07905 81.7278 12.9733 82.0962 14.2229C82.2613 14.7826 82.5219 15.5968 82.6752 16.0321C83.4989 18.372 84.2589 20.6636 87.3061 29.9963L90.6469 40.2288L97.1773 40.2299L103.708 40.231L106.236 32.7113C107.627 28.5755 108.852 24.8862 108.958 24.5131C109.114 23.9673 113.678 10.3608 116.261 2.74059C116.568 1.83618 116.819 0.996454 116.819 0.874781C116.819 0.736599 114.797 0.653373 111.434 0.653373H106.05L105.466 2.63226C105.145 3.72076 104.684 5.32354 104.443 6.19425C104.202 7.06496 103.743 8.6933 103.422 9.81278C103.102 10.9323 102.659 12.5097 102.438 13.3182C102.216 14.1267 101.763 15.7551 101.432 16.9368C101.101 18.1184 100.633 19.7977 100.393 20.6684C99.3212 24.5515 98.9873 25.7296 98.5982 27.0008C98.37 27.7471 98.0714 28.891 97.9351 29.543C97.6356 30.9748 97.3611 31.2182 97.1654 30.2256C97.0045 29.4089 96.3724 27.0492 95.5744 24.2869C95.2869 23.2918 94.8558 21.7652 94.6165 20.8945C93.5856 17.1448 92.0177 11.4762 91.5199 9.6997C91.2238 8.64241 90.7817 7.06496 90.5377 6.19425C90.2938 5.32354 89.8361 3.72076 89.521 2.63226L88.9476 0.653373H83.3385C80.2536 0.653373 77.7294 0.707878 77.7294 0.774369ZM118.889 14.8448L118.975 29.0362L119.562 30.7575C121.123 35.3329 123.948 38.2187 128.411 39.7959C132.541 41.2553 139.834 41.2488 144.045 39.7814C147.466 38.5896 150.534 35.9257 151.954 32.9146C153.366 29.9194 153.428 29.121 153.433 14.0532L153.437 0.653373H148.175H142.912L142.824 12.9225C142.729 26.3375 142.596 27.8971 141.374 29.9958C140.015 32.3304 136.984 33.3425 134.03 32.4476C132.531 31.9932 131.61 31.2001 130.818 29.6792C129.751 27.6325 129.624 25.7997 129.624 12.4548V0.653373H124.213H118.803L118.889 14.8448ZM62.7901 8.76883C65.0009 9.83834 66.4394 11.637 67.4227 14.5621C67.9115 16.0161 67.9537 16.496 67.9402 20.4422C67.9265 24.4633 67.8877 24.8509 67.3371 26.479C66.6636 28.4699 66.2897 29.1382 65.1651 30.3606C64.054 31.5681 62.9862 32.2115 61.595 32.5118C56.7679 33.554 53.3779 31.4208 51.5975 26.2215C50.9651 24.3744 50.9373 24.1261 50.946 20.4445C50.9541 17.1254 51.0233 16.3804 51.4506 15.0144C52.4818 11.7177 53.8791 9.90008 56.2512 8.77042C57.4288 8.20954 57.8936 8.11704 59.5327 8.11704C61.1755 8.11704 61.6305 8.20796 62.7901 8.76883Z" fill="#828282"/>
</svg>
