<svg width="311" height="61" viewBox="0 0 311 61" fill="none" xmlns="http://www.w3.org/2000/svg">
<path d="M265.967 57.6155H81.0822V60.7572H265.967V57.6155Z" fill="#828282"/>
<path d="M91.2759 0C95.9343 0 98.801 0.447926 99.8762 1.34378C100.815 2.11606 101.285 4.17035 101.285 7.50661H96.2432C96.2432 6.41924 95.993 5.72726 95.4926 5.4307C94.8747 5.06001 93.4692 4.87466 91.2759 4.87466C88.8046 4.87466 87.3682 5.094 86.9666 5.53264C86.5403 5.97749 86.3271 7.38613 86.3271 9.69372C86.3271 12.0013 86.5403 13.4007 86.9666 13.827C87.3929 14.2533 88.82 14.485 91.2759 14.485C93.4939 14.485 94.8809 14.3305 95.437 14.0216C95.993 13.7127 96.2711 12.9898 96.2711 11.853H101.285C101.285 15.2078 100.831 17.2621 99.9224 18.0159C98.8411 18.9116 95.959 19.3597 91.2759 19.3597C86.5928 19.3597 83.7631 18.8685 82.787 17.8861C81.7799 16.8976 81.2764 14.1544 81.2764 9.65664C81.2764 5.15886 81.7459 2.44661 82.685 1.51986C83.7291 0.506619 86.5928 0 91.2759 0Z" fill="#828282"/>
<path d="M106.577 0.287354H111.6V6.87649H114.222L119.894 0.287354H126.808L118.662 9.23968L127.855 19.0817H120.58L114.222 11.7419H111.6V19.0817H106.577V0.287354Z" fill="#828282"/>
<path d="M139.077 0.287354H147.696L155.768 19.0817H149.911L148.363 15.9215H138.41L136.881 19.0817H131.015L139.077 0.287354ZM143.776 4.52256H142.997L140.282 11.0098H146.463L143.776 4.52256Z" fill="#828282"/>
<path d="M159.966 0.240723H172.236C174.911 0.240723 176.675 0.617599 177.527 1.37135C178.59 2.30427 179.122 4.29986 179.122 7.3581C179.122 10.4163 178.596 12.4027 177.546 13.3171C176.681 14.0893 174.911 14.4755 172.236 14.4755H164.979V19.1092H159.966V0.240723ZM164.979 9.61008H172.236C172.725 9.64541 173.208 9.48546 173.58 9.16525C173.993 8.66214 174.19 8.01545 174.126 7.36737C174.187 6.7167 173.991 6.06809 173.58 5.56021C173.21 5.23666 172.726 5.07332 172.236 5.10611H164.979V9.61008Z" fill="#828282"/>
<path d="M183.617 19.0813V0.240723H202.318V4.79102H188.64V7.4137H198.769C199.467 7.35156 200.171 7.44111 200.832 7.67625C201.492 7.91139 202.094 8.28654 202.596 8.77601C203.491 9.9704 203.919 11.4497 203.801 12.9371C203.801 15.2354 203.329 16.8757 202.383 17.8581C201.902 18.3055 201.333 18.6485 200.713 18.8654C200.092 19.0822 199.434 19.1684 198.778 19.1185L183.617 19.0813ZM188.631 11.584V14.5311H197.342C197.534 14.5616 197.731 14.5468 197.917 14.4879C198.102 14.4289 198.272 14.3275 198.411 14.1916C198.55 14.0557 198.656 13.8891 198.72 13.7051C198.784 13.5211 198.804 13.3248 198.778 13.1317C198.806 12.9131 198.789 12.6912 198.728 12.4794C198.668 12.2675 198.565 12.0701 198.426 11.8991C198.107 11.6611 197.711 11.5489 197.314 11.584H188.631Z" fill="#828282"/>
<path d="M235.57 0.287354H240.584L240.565 14.7816L249.369 0.287354H257.58V19.0817H252.566V4.06846L243.781 19.0817H235.57V0.287354Z" fill="#828282"/>
<path d="M269.405 14.216H279.664V0.240723H284.678V14.216H286.272V22.0841H281.259V20.2306C281.293 19.9026 281.206 19.5734 281.018 19.3039C280.907 19.2003 280.774 19.1219 280.631 19.0739C280.486 19.026 280.334 19.0095 280.183 19.0258H264.373V0.240723H269.405V14.216Z" fill="#828282"/>
<path d="M310.182 0.241034V19.0817H305.177V13.8178H297.206C296.967 13.8003 296.728 13.8448 296.51 13.9471C296.292 14.0493 296.105 14.2059 295.966 14.4016C295.699 14.7883 295.559 15.2482 295.567 15.7176V19.0817H290.553V14.828C290.491 13.976 290.655 13.1226 291.026 12.3536C291.494 11.7609 292.108 11.2983 292.806 11.0098C292.022 10.675 291.398 10.0509 291.063 9.2675C290.667 8.11528 290.493 6.89804 290.553 5.681C290.553 3.5186 291.048 2.0142 292.037 1.16778C293.076 0.4486 294.337 0.120328 295.596 0.241034H310.182ZM305.177 5.10642H297.123C296.911 5.08571 296.697 5.11145 296.495 5.18187C296.294 5.25228 296.109 5.36567 295.957 5.5142C295.674 5.968 295.55 6.50244 295.605 7.03405C295.554 7.55619 295.685 8.07965 295.975 8.51684C296.124 8.669 296.307 8.78614 296.506 8.85984C296.706 8.93354 296.92 8.962 297.134 8.94314H305.186L305.177 5.10642Z" fill="#828282"/>
<path d="M102.406 29.5632V48.4039H97.3835V34.4287H88.4683C88.4683 39.8779 88.0667 43.6219 87.2635 45.6607C87.0245 46.4795 86.5212 47.1962 85.8323 47.6992C85.1433 48.202 84.3073 48.4629 83.4546 48.4409H81.0822V43.5571C81.3338 43.584 81.5882 43.5589 81.8298 43.4836C82.0714 43.4084 82.295 43.2845 82.4869 43.1194C82.6788 42.9545 82.8349 42.7521 82.9455 42.5244C83.0561 42.2968 83.119 42.049 83.1302 41.7963C83.328 40.6409 83.4268 36.5601 83.4268 29.554L102.406 29.5632Z" fill="#828282"/>
<path d="M129.977 39.0063C129.977 43.5843 129.498 46.3214 128.541 47.2173C127.583 48.1132 124.466 48.5949 119.19 48.663C116.687 48.7649 114.181 48.6065 111.711 48.1902C111.043 48.0537 110.427 47.7359 109.928 47.2715C109.429 46.8071 109.068 46.2145 108.884 45.5584C108.486 43.3984 108.334 41.2005 108.43 39.0063C108.43 34.4282 108.903 31.6911 109.848 30.7954C110.794 29.8995 113.91 29.4083 119.199 29.3218C124.383 29.3218 127.49 29.8037 128.522 30.7675C129.554 31.7314 130.042 34.4777 129.986 39.0063H129.977ZM113.453 39.0063C113.453 41.4096 113.691 42.8091 114.167 43.2045C114.643 43.5997 116.32 43.7975 119.199 43.7975C122.081 43.7975 123.768 43.603 124.25 43.2045C124.732 42.806 124.973 41.4065 124.973 39.0063C124.973 36.606 124.732 35.1788 124.25 34.7804C123.768 34.3819 122.09 34.1873 119.218 34.1873C116.345 34.1873 114.649 34.3819 114.167 34.7804C113.685 35.1788 113.453 36.5875 113.453 39.0063Z" fill="#828282"/>
<path d="M143.656 29.6372L148.234 41.0361L153.016 29.6372H161.56V48.4592H156.547V33.548L150.393 48.4592H146.288L139.634 33.548L139.671 48.4592H134.657V29.6372H143.656Z" fill="#828282"/>
<path d="M166.861 48.4038V29.5632H185.563V34.1135H171.875V36.6898H181.995C182.695 36.6274 183.401 36.7179 184.063 36.9546C184.726 37.1913 185.329 37.569 185.831 38.0613C186.726 39.2558 187.154 40.735 187.036 42.2224C187.036 44.5207 186.563 46.161 185.618 47.1435C185.137 47.5913 184.568 47.9345 183.948 48.1515C183.327 48.3684 182.669 48.4544 182.013 48.4038H166.861ZM171.875 40.8972V43.8443H180.586C180.778 43.8744 180.973 43.8597 181.158 43.8013C181.343 43.7429 181.512 43.6422 181.651 43.5074C181.79 43.3727 181.896 43.2074 181.961 43.0246C182.025 42.8417 182.046 42.6465 182.022 42.4541C182.05 42.2341 182.033 42.0108 181.972 41.7976C181.912 41.5843 181.809 41.3853 181.67 41.2123C181.353 40.9779 180.961 40.8662 180.567 40.8972H171.875Z" fill="#828282"/>
<path d="M198.667 29.6558H207.314L215.385 48.4502H209.519L207.972 45.29H198.046L196.498 48.4502H190.632L198.667 29.6558ZM203.366 33.8911H202.587L199.872 40.3782H206.053L203.366 33.8911Z" fill="#828282"/>
<path d="M208.815 0.287354H213.838V6.87649H224.671V0.287354H229.694V19.0817H224.671V11.7419H213.838V19.0817H208.815V0.287354Z" fill="#828282"/>
<path d="M219.565 29.5632H231.835C234.51 29.5632 236.274 29.94 237.127 30.6939C238.19 31.6268 238.721 33.6223 238.721 36.6805C238.721 39.7388 238.196 41.722 237.145 42.6302C236.274 43.4024 234.501 43.7886 231.826 43.7886H224.569V48.4223H219.556L219.565 29.5632ZM224.579 38.9233H231.835C232.324 38.9586 232.807 38.7987 233.179 38.4783C233.385 38.2282 233.539 37.9396 233.633 37.6294C233.727 37.3192 233.758 36.9936 233.726 36.6713C233.785 36.0235 233.589 35.3783 233.179 34.8733C232.809 34.5499 232.325 34.3865 231.835 34.4193H224.579V38.9233Z" fill="#828282"/>
<path d="M244.281 43.5573C244.739 43.5573 245.085 42.5812 245.319 40.6288C245.554 38.6765 245.672 34.9942 245.672 29.582H264.483V43.5573H265.735V50.3689H260.722V49.5904C260.756 49.2626 260.671 48.9332 260.481 48.6636C260.368 48.5633 260.236 48.4875 260.092 48.4412C259.948 48.395 259.797 48.3792 259.647 48.395H249.452C248.723 48.395 248.359 48.7841 248.359 49.5626V50.3412H243.336V43.5573H244.281ZM259.471 43.5573V34.4288H250.694C250.717 36.5085 250.621 38.5878 250.407 40.6566C250.395 41.6595 250.151 42.6461 249.694 43.5387L259.471 43.5573Z" fill="#828282"/>
<path d="M49.8679 1.41792C52.3726 1.41792 54.7746 2.41285 56.5456 4.18386C58.3165 5.95485 59.3114 8.35685 59.3114 10.8614V49.8957C59.3042 52.3955 58.306 54.7904 56.5358 56.5554C54.7655 58.3203 52.3677 59.3114 49.8679 59.3114H10.8614C8.36166 59.3114 5.96387 58.3203 4.19367 56.5554C2.42346 54.7904 1.42528 52.3955 1.41792 49.8957V10.8614C1.41792 8.35685 2.41285 5.95485 4.18386 4.18386C5.95485 2.41285 8.35685 1.41792 10.8614 1.41792H49.8772H49.8679ZM49.8772 3.96081e-06H10.8614C9.43473 -0.00121491 8.0218 0.278891 6.7035 0.824298C5.38517 1.3697 4.18734 2.16969 3.17853 3.17853C2.16969 4.18734 1.3697 5.38517 0.824298 6.7035C0.278891 8.0218 -0.00121491 9.43473 3.96081e-06 10.8614V49.8957C-0.00121491 51.3225 0.278891 52.7354 0.824298 54.0538C1.3697 55.3719 2.16969 56.5699 3.17853 57.5786C4.18734 58.5875 5.38517 59.3874 6.7035 59.9329C8.0218 60.4783 9.43473 60.7584 10.8614 60.7571H49.8772C51.3031 60.7571 52.7151 60.4762 54.0324 59.9302C55.3496 59.3844 56.5463 58.584 57.5541 57.5753C58.5619 56.5668 59.3611 55.3692 59.906 54.0516C60.4508 52.7338 60.7306 51.3216 60.7294 49.8957V10.8614C60.7306 9.43473 60.4506 8.0218 59.9051 6.7035C59.3597 5.38517 58.5597 4.18734 57.5508 3.17853C56.5421 2.16969 55.3442 1.3697 54.0258 0.824298C52.7076 0.278891 51.2946 -0.00121491 49.8679 3.96081e-06" fill="white"/>
<path d="M49.8679 3.96081e-06H10.8614C9.43473 -0.00121491 8.0218 0.278891 6.7035 0.824298C5.38517 1.3697 4.18734 2.16969 3.17853 3.17853C2.16969 4.18734 1.3697 5.38517 0.824298 6.7035C0.278891 8.0218 -0.00121491 9.43473 3.96081e-06 10.8614V49.8957C-0.00121491 51.3225 0.278891 52.7354 0.824298 54.0538C1.3697 55.3719 2.16969 56.5699 3.17853 57.5786C4.18734 58.5875 5.38517 59.3874 6.7035 59.9329C8.0218 60.4783 9.43473 60.7584 10.8614 60.7571H49.8772C51.3031 60.7571 52.7151 60.4762 54.0324 59.9302C55.3496 59.3844 56.5463 58.584 57.5541 57.5753C58.5619 56.5668 59.3611 55.3692 59.906 54.0516C60.4508 52.7338 60.7306 51.3216 60.7294 49.8957V10.8614C60.7306 9.43473 60.4506 8.0218 59.9051 6.7035C59.3597 5.38517 58.5597 4.18734 57.5508 3.17853C56.5421 2.16969 55.3442 1.3697 54.0258 0.824298C52.7076 0.278891 51.2946 -0.00121491 49.8679 3.96081e-06Z" fill="white"/>
<path d="M1.41809 48.3291V50.303C1.42789 52.694 2.3839 54.9837 4.07709 56.6717C5.7703 58.3596 8.06296 59.3086 10.4538 59.311H50.3037C52.6898 59.3012 54.9753 58.3491 56.6624 56.6619C58.3498 54.9746 59.3019 52.6891 59.3117 50.303V48.3291H1.41809Z" fill="black"/>
<path fill-rule="evenodd" clip-rule="evenodd" d="M11.8995 24.4845L6.7561 19.2389L6.82097 19.1742L11.8995 13.901L17.46 8.10884L19.2671 6.25537H41.2681L42.9731 7.99763L48.6355 13.7527L53.918 19.1277L53.9828 19.1927L48.6447 24.6789L42.9731 30.5823L39.6647 33.9927L38.6268 35.0678L36.069 37.6996L33.8725 39.9424L31.6577 42.2316L30.4621 43.4549L30.11 43.1119L28.6736 41.6384L26.579 39.5161L24.4012 37.2919L21.1483 33.9557L17.4414 30.2488L11.8995 24.4845ZM50.7485 18.5348L48.6262 16.4773L46.9582 14.8277V18.5348H50.7485ZM42.4079 27.9596L42.9731 27.3851L48.6355 21.732L49.9887 20.3882H46.3372L42.9269 26.8754L42.4079 27.9596ZM39.6277 18.164H41.8055L39.6277 16.1993L38.5896 15.2726L36.7361 13.5673L38.0521 18.201H39.674L39.6277 18.164ZM38.6175 28.2099L36.0597 30.777L35.3831 31.4349L33.8725 35.4476L32.7326 38.4597L33.8725 37.2271L36.069 34.8547L38.6268 32.0745L39.3681 31.2497L39.6647 30.5546L42.0279 24.7903L39.6555 27.1535L38.6175 28.2099ZM36.7641 10.3794L38.6175 9.06339L39.3589 8.53515L38.6175 8.60002L36.0597 8.83171L35.3831 8.90585L36.0597 9.64723L36.7641 10.3794ZM37.8854 12.2328L38.6545 12.8908L39.6925 13.8176L42.9731 16.6812L45.0677 18.5348V13.1503L42.9731 10.9169L41.2681 9.06339L39.6555 10.5647L38.6175 11.4915L37.8854 12.2328ZM36.0967 18.1455H36.5602L36.0967 16.9685L35.2164 14.8277L33.9004 16.3846L32.3805 18.1455H36.0875H36.0967ZM35.8001 28.6824L36.0967 28.386L38.6545 25.7076L39.6925 24.6234L43.0009 21.1573L43.5756 20.5549H38.4229L36.0597 27.8021L35.8001 28.6824ZM31.4166 20.5364L31.6577 21.6948L33.3165 29.4147L33.8819 27.7372L36.0782 21.3705L36.3563 20.5364H31.4166ZM30.1935 24.4845L30.11 24.8643L28.6736 31.2867L28.2936 32.9918L28.6736 34.2893L30.11 39.3122L30.1935 39.5995L31.6577 33.5942L31.9078 32.5747L31.6577 31.4071L30.1935 24.4845ZM28.6736 15.7545L30.11 17.2558L30.2675 17.4133L31.6577 15.9213L33.8725 13.5118L35.3831 11.8714L33.8725 10.2867L32.3528 8.71123H27.9877L26.579 10.3516L25.1518 12.0475L26.579 13.5488L28.6736 15.7545ZM27.1537 29.4795L28.6736 22.3714L29.0534 20.6106H24.0954L24.3827 21.4354L26.579 27.8021L27.1537 29.4795ZM26.579 18.2103H28.1082L26.579 16.431L25.2632 14.8741L24.4012 17.0056L23.9193 18.201H26.579V18.2103ZM23.7433 10.4442L24.4012 9.70285L25.0593 8.96144L24.4012 8.90585L21.1483 8.60002H21.0928H21.1483L23.7433 10.4442ZM24.4012 34.9194L26.579 37.2919L27.7283 38.5339L26.579 35.5218L25.0222 31.5091L24.3642 30.8419L21.1113 27.5797L18.3961 24.855L21.0464 31.3422L21.1021 31.3979L24.4012 34.9194ZM22.4088 18.2382L23.7341 13.6044L21.1391 15.9491L18.6277 18.2289H22.4088V18.2382ZM21.1391 13.6044L22.6035 12.3255L21.1391 10.9817L19.2022 9.15606L17.4878 11.0095L15.4119 13.2523V18.5348L17.4878 16.6812L21.1391 13.6044ZM16.9132 20.6384L17.4692 21.2315L21.1763 25.0589L24.429 28.4787L24.7071 28.7659L24.429 27.8948L22.0566 20.6384H16.9225H16.9132ZM14.0681 20.3882H10.4631L11.8995 21.7968L17.46 27.3574L18.0345 27.9226L17.4785 26.8754L14.0681 20.3882ZM13.5028 18.5348V14.8277L11.8902 16.4125L9.72167 18.5348H13.5121H13.5028Z" fill="black"/>
<path d="M6.7561 55.4009V52.2871H10.1665V55.4009H9.42512V52.908H7.50676V55.4009H6.7561Z" fill="white"/>
<path d="M14.2718 54.3341C14.2746 54.5026 14.2559 54.6707 14.2162 54.8345C14.1843 54.9572 14.1203 55.0691 14.0308 55.1589C13.9351 55.2501 13.8167 55.3141 13.6879 55.3443C13.5117 55.3849 13.3312 55.4036 13.1504 55.3998H11.7881C11.6099 55.4016 11.4323 55.3798 11.2599 55.335C11.129 55.3033 11.008 55.2396 10.9077 55.1496C10.8128 55.0609 10.7426 54.9492 10.7038 54.8253C10.6581 54.6688 10.6362 54.5064 10.639 54.3433V53.4166C10.6352 53.2352 10.657 53.0544 10.7038 52.8791C10.7381 52.7527 10.8052 52.6375 10.8984 52.5455C10.9966 52.4596 11.1144 52.3992 11.2414 52.3694C11.4208 52.3293 11.6043 52.3108 11.7881 52.3137H13.1504C13.3675 52.3048 13.5843 52.3362 13.7899 52.4064C13.949 52.4668 14.0785 52.5864 14.1513 52.7402C14.2406 52.9508 14.2817 53.1788 14.2718 53.4073V54.3341ZM11.3804 54.2599C11.3769 54.3676 11.3958 54.475 11.436 54.575C11.4525 54.6123 11.4767 54.6455 11.5071 54.6727C11.5374 54.7 11.5732 54.7203 11.612 54.7326C11.7286 54.7526 11.8477 54.7526 11.9642 54.7326H12.9743C13.0971 54.7531 13.2223 54.7531 13.3451 54.7326C13.3827 54.7203 13.4173 54.6998 13.4461 54.6726C13.475 54.6454 13.4974 54.612 13.5119 54.575C13.5309 54.4678 13.5309 54.358 13.5119 54.2506V53.4536C13.5176 53.3368 13.4987 53.22 13.4563 53.1108C13.4388 53.0741 13.4143 53.0413 13.3841 53.0143C13.3538 52.9872 13.3185 52.9666 13.2802 52.9533C13.1605 52.9335 13.0384 52.9335 12.9187 52.9533H11.992C11.8698 52.9479 11.7475 52.9635 11.6306 52.9996C11.5911 53.0134 11.5551 53.0355 11.5247 53.0642C11.4944 53.093 11.4704 53.1278 11.4545 53.1665C11.4145 53.2762 11.3956 53.3925 11.3989 53.5093L11.3804 54.2599Z" fill="white"/>
<path d="M15.7545 55.4005C15.5436 55.4092 15.3329 55.3778 15.1336 55.3078C14.9931 55.2565 14.8773 55.1538 14.8093 55.0205C14.7363 54.8641 14.7013 54.6927 14.7073 54.5202H15.4672C15.4676 54.5595 15.477 54.5985 15.4946 54.6339C15.5123 54.6691 15.5378 54.6999 15.5692 54.7241C15.6419 54.7848 15.7339 54.8177 15.8287 54.8166H17.0705C17.1965 54.8246 17.3222 54.7957 17.432 54.7333C17.473 54.7023 17.5056 54.6613 17.5267 54.6143C17.5477 54.5673 17.5566 54.5158 17.5524 54.4645C17.5668 54.4005 17.5668 54.3339 17.5524 54.2699C17.5194 54.2129 17.4667 54.1701 17.4041 54.1494C17.2998 54.1324 17.1934 54.1324 17.089 54.1494H15.6619V53.5655H17.1076C17.1562 53.5719 17.2055 53.5668 17.2518 53.5508C17.2981 53.5347 17.34 53.5082 17.3742 53.473C17.4084 53.438 17.4339 53.3954 17.4487 53.3487C17.4636 53.3019 17.4674 53.2526 17.4598 53.2042C17.4598 52.991 17.3393 52.8799 17.1076 52.8799H15.8565C15.7531 52.8668 15.6484 52.8896 15.5599 52.9446C15.5058 53.0061 15.4761 53.0852 15.4765 53.167H14.7351C14.7301 52.9965 14.7684 52.8276 14.8463 52.676C14.9242 52.5435 15.0453 52.442 15.1892 52.3886C15.3856 52.3201 15.593 52.2887 15.8009 52.2959H17.0613C17.2842 52.291 17.5064 52.3222 17.7192 52.3886C17.869 52.4353 17.9972 52.5338 18.0807 52.6667C18.1626 52.8238 18.2039 52.999 18.2012 53.1762C18.2034 53.3259 18.1649 53.4732 18.0899 53.6027C18.0125 53.7077 17.9063 53.7883 17.7841 53.8343C17.92 53.879 18.0415 53.959 18.1363 54.066C18.2217 54.1806 18.2643 54.3217 18.2567 54.4645C18.2636 54.6501 18.2255 54.8345 18.1455 55.002C18.0746 55.1407 17.9562 55.2492 17.8119 55.3078C17.62 55.382 17.4151 55.4166 17.2095 55.4097L15.7545 55.4005Z" fill="white"/>
<path d="M22.0382 55.4009V52.908H21.9363L20.0736 55.4009H18.7946V52.2871H19.5361V54.78H19.638L21.5285 52.2871H22.7796V55.4009H22.0382Z" fill="white"/>
<path d="M23.3451 55.4009V52.2871H24.0864V53.4547H24.522L25.875 52.2871H26.9963L25.1614 53.7513L27.0613 55.4009H25.9677L24.5405 54.0664H24.0864V55.4009H23.3451Z" fill="white"/>
<path d="M30.6665 55.4009V52.908H30.5646L28.7019 55.4009H27.4229V52.2871H28.1644V54.78H28.2663L30.1661 52.2871H31.4079V55.4009H30.6665Z" fill="white"/>
<path d="M34.475 55.4005C34.264 55.4092 34.0532 55.3778 33.8541 55.3078C33.7135 55.2565 33.5977 55.1538 33.5297 55.0205C33.4566 54.8641 33.4218 54.6927 33.4278 54.5202H34.1876C34.2009 54.5835 34.2372 54.6397 34.2896 54.6776C34.3623 54.7384 34.4543 54.7712 34.5492 54.7703H35.791C35.9199 54.7796 36.0489 54.7506 36.1616 54.6869C36.2027 54.6559 36.2352 54.6151 36.2564 54.5681C36.2775 54.5211 36.2864 54.4694 36.2822 54.4182C36.2965 54.354 36.2965 54.2876 36.2822 54.2236C36.2492 54.1666 36.1964 54.1237 36.1338 54.1032C36.0295 54.0861 35.923 54.0861 35.8187 54.1032H34.41V53.5655H35.8652C35.9143 53.5735 35.9647 53.5697 36.0123 53.5544C36.0598 53.539 36.103 53.5125 36.1383 53.4774C36.1735 53.442 36.2 53.3988 36.2152 53.3513C36.2307 53.3039 36.2345 53.2533 36.2265 53.2042C36.2265 52.991 36.106 52.8799 35.8652 52.8799H34.6139C34.5105 52.8668 34.4059 52.8896 34.3173 52.9446C34.2626 53.0056 34.2326 53.085 34.2341 53.167H33.4925C33.4873 52.9965 33.5256 52.8274 33.6037 52.676C33.6823 52.5441 33.8031 52.4427 33.9467 52.3886C34.143 52.3201 34.3505 52.2887 34.5584 52.2959H35.8187C36.0447 52.2901 36.2702 52.3213 36.4861 52.3886C36.6354 52.436 36.7634 52.5343 36.8474 52.6667C36.9294 52.8238 36.9707 52.999 36.9678 53.1762C36.9702 53.3259 36.9317 53.4732 36.8567 53.6027C36.7788 53.7074 36.6727 53.7877 36.5508 53.8343C36.6869 53.8786 36.8086 53.9586 36.9031 54.066C36.9892 54.1803 37.0321 54.3216 37.0235 54.4645C37.0297 54.6499 36.9916 54.8342 36.9123 55.002C36.8385 55.1418 36.7168 55.2505 36.5693 55.3078C36.3776 55.382 36.1726 55.4166 35.9671 55.4097L34.475 55.4005Z" fill="white"/>
<path d="M41.3235 55.4009H40.5819V52.9635H40.3595L39.5255 53.6124L39.1362 53.0377L40.1001 52.2871H41.3235V55.4009Z" fill="white"/>
<path d="M44.9287 54.8254C45.0486 54.8413 45.1702 54.8413 45.2901 54.8254C45.3666 54.8083 45.4332 54.7617 45.4755 54.6957C45.5232 54.6179 45.5458 54.5272 45.5402 54.4361V54.0283C45.4932 54.0806 45.4405 54.1272 45.3828 54.1673C45.3088 54.2148 45.2273 54.2493 45.1419 54.2692C45.0064 54.2855 44.8694 54.2855 44.7341 54.2692H44.1595C43.922 54.2745 43.6849 54.2464 43.4551 54.186C43.29 54.1455 43.1431 54.0508 43.0381 53.9171C42.938 53.7564 42.8893 53.5689 42.8991 53.3797C42.893 53.1901 42.9086 53.0004 42.9454 52.8143C42.9712 52.6858 43.0321 52.5672 43.1215 52.4714C43.218 52.3831 43.3365 52.3223 43.4644 52.2953C43.6568 52.2587 43.8525 52.2431 44.0483 52.249H45.1326C45.3463 52.2432 45.5596 52.2746 45.7628 52.3417C45.9202 52.3875 46.0575 52.4856 46.1519 52.6196C46.2428 52.7635 46.2881 52.9316 46.2818 53.1016V54.4825C46.2935 54.6104 46.2765 54.7394 46.2315 54.8597C46.1865 54.9801 46.115 55.0888 46.0222 55.1775C45.747 55.353 45.4198 55.4283 45.0954 55.3906H44.039C43.819 55.3986 43.5993 55.3672 43.3904 55.2979C43.2387 55.2446 43.1108 55.1395 43.0288 55.0015C42.9454 54.8484 42.9069 54.675 42.9176 54.501H43.6127C43.606 54.5705 43.626 54.64 43.6682 54.6957C43.7127 54.7417 43.7716 54.7713 43.8351 54.7789H44.1502L44.9287 54.8254ZM43.6312 53.2405C43.6247 53.3038 43.6311 53.3677 43.6503 53.4283C43.6693 53.4889 43.7007 53.5449 43.7424 53.5928C43.8747 53.6766 44.0318 53.7125 44.1872 53.6948H44.975C45.0913 53.7009 45.2075 53.6851 45.3178 53.6483C45.3931 53.6229 45.4561 53.57 45.494 53.5001C45.5273 53.421 45.5431 53.3356 45.5402 53.25C45.5451 53.193 45.5368 53.1359 45.5157 53.0829C45.4949 53.0298 45.462 52.9824 45.4198 52.9441C45.281 52.8689 45.123 52.8366 44.9657 52.8515H44.1965C44.0423 52.8368 43.8872 52.869 43.7517 52.9441C43.7118 52.9819 43.6811 53.0281 43.6619 53.0795C43.6427 53.131 43.6352 53.1859 43.6405 53.2405" fill="white"/>
<path d="M48.7842 54.8254C48.9041 54.8414 49.0257 54.8414 49.1457 54.8254C49.2217 54.8075 49.2881 54.761 49.3309 54.6955C49.3745 54.6165 49.3937 54.5261 49.3866 54.4362V54.0284C49.3424 54.0799 49.2927 54.1265 49.2384 54.1673C49.1644 54.2149 49.083 54.2493 48.9974 54.2693C48.862 54.2854 48.7251 54.2854 48.5896 54.2693H48.0151C47.7775 54.274 47.5406 54.2459 47.3108 54.1858C47.1453 54.1461 46.9982 54.0514 46.8937 53.9172C46.7934 53.7565 46.745 53.5687 46.7546 53.3797C46.7495 53.19 46.7651 53.0004 46.8011 52.8143C46.8263 52.6857 46.8872 52.5669 46.9772 52.4715C47.0733 52.3828 47.192 52.3218 47.32 52.2954C47.5123 52.2589 47.7082 52.2433 47.9039 52.2489H48.9881C49.2051 52.2422 49.4215 52.2736 49.6275 52.3416C49.7844 52.3888 49.9214 52.4865 50.0168 52.6197C50.1071 52.7637 50.1523 52.9317 50.1465 53.1016V54.4824C50.1585 54.6103 50.1414 54.7393 50.0964 54.8597C50.0514 54.98 49.98 55.0886 49.8871 55.1775C49.6123 55.3538 49.2847 55.4291 48.9604 55.3906H47.8945C47.6745 55.3986 47.4548 55.3672 47.2458 55.298C47.0944 55.2444 46.9665 55.1396 46.8845 55.0014C46.8011 54.8485 46.7624 54.6749 46.7733 54.5009H47.4682C47.466 54.5715 47.4891 54.6406 47.5332 54.6955C47.5774 54.7418 47.6364 54.7712 47.7 54.779H48.0151L48.7842 54.8254ZM47.4869 53.2406C47.4802 53.3039 47.4867 53.3678 47.5058 53.4283C47.525 53.4889 47.5564 53.5448 47.5981 53.5929C47.7303 53.6765 47.8872 53.7126 48.0429 53.6948H48.8307C48.9467 53.701 49.063 53.6852 49.1735 53.6484C49.2453 53.621 49.3046 53.5682 49.3404 53.5002C49.3739 53.4211 49.3897 53.3356 49.3866 53.2498C49.3913 53.1931 49.383 53.1359 49.3621 53.083C49.3413 53.0298 49.3084 52.9823 49.2662 52.944C49.1272 52.8689 48.9692 52.8366 48.812 52.8513H48.0429C47.8885 52.8363 47.7334 52.8686 47.5981 52.944C47.5566 52.9808 47.5241 53.0269 47.5032 53.0782C47.4822 53.1298 47.4735 53.1853 47.4775 53.2406" fill="white"/>
<path d="M53.9642 53.3247C53.972 53.5107 53.9236 53.6948 53.8253 53.8529C53.7304 53.995 53.5947 54.1049 53.436 54.168C53.2474 54.2455 53.0467 54.2894 52.8429 54.2977L51.9161 54.3534C51.8053 54.3422 51.6936 54.3422 51.5825 54.3534C51.5227 54.3603 51.4679 54.3904 51.4298 54.4372C51.3919 54.4838 51.3734 54.5435 51.3787 54.6036V54.7704H53.9922V55.3542H50.5816V54.6777C50.5664 54.5607 50.5664 54.4425 50.5816 54.3255C50.6099 54.221 50.664 54.1254 50.7392 54.0476C50.8401 53.9543 50.9604 53.8847 51.0913 53.8437C51.2865 53.7789 51.4888 53.7385 51.6937 53.7233L52.6762 53.6676C52.8173 53.6725 52.9564 53.6336 53.0747 53.5564C53.1131 53.5143 53.1423 53.4642 53.1599 53.41C53.1775 53.3556 53.1832 53.2981 53.1766 53.2413C53.1833 53.1613 53.1672 53.0809 53.1302 53.0097C53.0881 52.9511 53.025 52.9112 52.9542 52.8985C52.828 52.8838 52.7005 52.8838 52.5742 52.8985H52.0645C51.8953 52.8769 51.724 52.8769 51.5548 52.8985C51.512 52.9068 51.4719 52.9257 51.438 52.9531C51.4041 52.9806 51.3774 53.0158 51.3602 53.0559C51.3417 53.1725 51.3417 53.2914 51.3602 53.4082H50.6003C50.5965 53.2012 50.6246 52.9948 50.6836 52.7965C50.7392 52.6331 50.8553 52.497 51.0081 52.4165C51.2301 52.31 51.4757 52.2623 51.7217 52.2774H52.8244C53.0108 52.2718 53.1975 52.2874 53.3805 52.3238C53.5071 52.349 53.6254 52.4063 53.7233 52.4907C53.8091 52.5743 53.8701 52.6802 53.8995 52.7965C53.9406 52.96 53.9593 53.1283 53.955 53.2968" fill="white"/>
</svg>
