<svg width="215" height="66" viewBox="0 0 215 66" fill="none" xmlns="http://www.w3.org/2000/svg">
<path fill-rule="evenodd" clip-rule="evenodd" d="M85.5857 0.314927C81.2897 1.46082 79.0988 4.55576 80.0874 8.0817C80.6436 10.0651 83.2037 11.8996 86.6165 12.7609C89.1588 13.4024 90.8263 14.0405 91.2918 14.5501C91.8925 15.2075 91.6862 16.5447 90.8943 17.128C90.3474 17.5307 89.9343 17.5994 88.06 17.5994C85.7018 17.5994 84.9884 17.409 83.1885 16.2992L82.0985 15.627L81.2978 16.3886C80.8575 16.8075 80.1872 17.5345 79.8083 18.0042L79.1197 18.8581L79.6502 19.4175C80.9688 20.8078 84.6313 21.9678 87.7253 21.9752C94.0478 21.9903 97.9386 18.3242 96.5583 13.6521C95.8432 11.2314 93.8954 9.82479 89.9041 8.84668C86.0423 7.90023 85.0721 7.35064 85.0721 6.11019C85.0721 5.25807 85.6616 4.54812 86.553 4.32645C87.8309 4.00864 90.807 4.35362 92.1855 4.97935C92.9176 5.31153 93.5968 5.58351 93.6945 5.58351C94.0618 5.58351 96.228 2.43063 96.0955 2.08857C95.9069 1.60187 93.7836 0.68641 91.9505 0.301676C90.0098 -0.105742 87.1396 -0.0996783 85.5857 0.314927ZM155.296 0.200832C153.618 0.618806 151.845 1.62837 150.602 2.87331C148.419 5.0602 147.428 7.55367 147.428 10.8615C147.428 16.2644 150.442 20.3474 155.394 21.6527C158.056 22.3544 162.21 21.8634 164.858 20.5342C166.083 19.9197 167.609 18.7053 167.609 18.3458C167.609 18.2261 167.029 17.4781 166.321 16.6838C165.034 15.2412 165.032 15.2398 164.563 15.6764C163.781 16.4037 161.696 17.2277 159.967 17.4927C158.61 17.7007 158.094 17.6823 156.919 17.384C154.67 16.8133 152.944 15.2023 152.707 13.4527L152.584 12.546H160.357H168.13L168 10.5808C167.771 7.12402 166.402 3.85682 164.483 2.18761C164.032 1.79547 163.003 1.16884 162.197 0.795339C160.921 0.203976 160.437 0.107849 158.445 0.0512506C157.187 0.0155397 155.77 0.0829187 155.296 0.200832ZM200.967 0.308414C197.226 1.35122 194.107 4.40438 193.283 7.82948C192.799 9.84029 192.747 11.286 193.095 13.0556C193.833 16.8055 196.139 19.6929 199.506 21.0829C204.969 23.3383 211.186 21.213 213.701 16.2303C214.789 14.0748 215.081 12.6628 214.945 10.2158C214.698 5.78183 212.257 2.35202 208.197 0.732227C206.321 -0.0165776 202.86 -0.219388 200.967 0.308414ZM132.554 0.637897C131.713 0.911006 130.768 1.43836 130.142 1.98435C129.147 2.85197 129.108 2.86522 128.977 2.37987C128.902 2.10361 128.84 1.59962 128.838 1.26003L128.835 0.642389H126.341H123.846V10.9738V21.3053H126.441H129.036L129.106 14.8481C129.175 8.41702 129.177 8.38648 129.758 7.26799C130.639 5.57071 131.853 4.8246 133.894 4.72578C135.306 4.65728 135.628 4.71702 136.305 5.17205C136.735 5.46088 137.296 6.05067 137.553 6.48257C137.991 7.22217 138.022 7.67833 138.087 14.2866L138.155 21.3053H140.654H143.152L143.076 13.5005L143 5.69581L142.395 4.41067C141.631 2.78818 140.05 1.24925 138.644 0.758954C136.92 0.157934 134.199 0.104031 132.554 0.637897ZM99.5034 3.38718C102.362 9.69183 103.469 12.1296 104.687 14.792C107.738 21.465 107.576 21.018 107.276 21.9341C106.973 22.8642 106.096 24.5992 105.655 25.143C104.876 26.1042 103.56 26.2716 102.394 25.5576L101.636 25.0933L100.485 26.8393L99.334 28.5854L99.856 28.9815C100.77 29.6755 102.319 30.0645 104.167 30.0645C106.285 30.0645 107.127 29.7586 108.527 28.4811C109.805 27.3144 110.744 25.7146 111.727 23.032C112.142 21.8971 113.163 19.3513 113.995 17.3748C115.421 13.9841 116.173 12.1837 119.513 4.16586C120.275 2.3363 120.899 0.791746 120.899 0.7338C120.899 0.675854 119.656 0.656988 118.137 0.691575L115.377 0.754687L113.713 5.24662C112.798 7.71718 111.624 10.8817 111.105 12.2792C110.389 14.2065 110.112 14.7313 109.955 14.4533C109.764 14.1168 108.933 12.1341 106.612 6.4819C106.13 5.30838 105.378 3.53968 104.941 2.55146L104.146 0.754687L101.199 0.692025L98.2533 0.629587L99.5034 3.38718ZM169.196 0.832173C169.196 0.943797 169.746 2.33652 170.417 3.92711C172.85 9.68981 176.419 18.0839 177.09 19.6208L177.777 21.193L180.405 21.2563C182.958 21.3179 183.04 21.3048 183.241 20.8071C183.355 20.5253 185.251 16.0497 187.453 10.8615C189.655 5.67335 191.512 1.24835 191.579 1.02825C191.693 0.657212 191.498 0.632731 188.922 0.691351L186.143 0.754687L184.583 4.90972C181.697 12.5968 180.658 15.2412 180.522 15.2412C180.448 15.2412 179.589 13.0933 178.613 10.4685C177.638 7.8434 176.409 4.58406 175.883 3.22525L174.927 0.754687L172.062 0.6918C170.458 0.656538 169.196 0.718302 169.196 0.832173ZM160.015 4.65481C160.515 4.87985 161.25 5.43214 161.649 5.88223C162.375 6.70066 162.989 8.31932 162.731 8.73303C162.648 8.86509 160.613 8.95246 157.619 8.95246H152.644V8.38378C152.644 6.94704 154.138 5.15678 155.849 4.54341C156.998 4.13172 158.97 4.1845 160.015 4.65481ZM206.186 4.77699C207.327 5.24931 208.131 5.9523 208.775 7.04092C209.572 8.3876 209.801 9.26959 209.804 10.9992C209.809 13.6802 208.668 15.7948 206.621 16.8982C205.56 17.4698 205.268 17.5253 203.686 17.4541C201.637 17.3618 200.497 16.768 199.347 15.1951C196.902 11.8529 198.028 6.48684 201.508 4.88726C202.614 4.379 205.084 4.32083 206.186 4.77699ZM78.9977 32.9281L79.0632 34.8934L147.032 34.95L215 35.0063V32.9847V30.9629H146.966H78.9321L78.9977 32.9281ZM125.66 54.8825V66H128.041H130.422V61.3958V56.7915H135.184H139.946V61.3958V66H142.44H144.934V54.8825V43.7649H142.44H139.946V48.2614V52.758L135.241 52.6971L130.536 52.6365L130.474 48.2007L130.413 43.7649H128.036H125.66V54.8825ZM86.9995 44.3947C84.8929 45.1363 83.7066 45.8656 82.3835 47.2323C80.1031 49.5881 78.9924 52.6257 79.2586 55.7808C79.5307 59.0076 80.9042 61.6159 83.3653 63.5797C86.7103 66.2491 91.8669 66.7409 95.8427 64.7701C97.2867 64.0541 99.1306 62.636 99.1306 62.2409C99.1306 62.1533 98.5009 61.4524 97.7313 60.6833L96.3323 59.285L95.482 59.9521C91.7825 62.8543 86.8185 62.0276 84.9174 58.1928C84.3596 57.0676 84.2787 56.6471 84.2805 54.8825C84.2823 53.1302 84.363 52.7097 84.8866 51.724C85.4623 50.6394 86.8226 49.2118 87.7164 48.7543C87.9457 48.6369 88.6574 48.419 89.298 48.2703C91.0331 47.8672 92.9197 48.2955 94.7434 49.507L96.1774 50.4593L97.6281 48.8606C98.4261 47.9811 99.0351 47.157 98.9818 47.0292C98.7859 46.5598 96.8817 45.3126 95.4752 44.7327C94.209 44.2105 93.6614 44.1274 91.081 44.0659C88.701 44.0091 87.9148 44.0724 86.9995 44.3947ZM102.759 54.9948V66H105.33H107.902L110.479 62.0134C111.896 59.8209 113.927 56.7129 114.993 55.1071L116.93 52.1873L116.99 59.0937L117.05 66H119.541H122.032V54.9948V43.9895L119.481 43.9916L116.93 43.9933L116.107 45.283C115.655 45.992 113.776 48.9475 111.932 51.8504C110.089 54.7533 108.444 57.2764 108.277 57.4572C108.023 57.7326 107.974 56.6606 107.974 50.8878V43.9895H105.366H102.759V54.9948ZM155.705 44.2402C153.053 44.622 150.365 45.8238 149.041 47.2195L148.526 47.763L149.709 49.0766C150.36 49.7994 150.968 50.4752 151.062 50.5787C151.156 50.6821 151.671 50.4518 152.208 50.0669C154.607 48.3451 158.617 47.9865 161.014 49.2788C161.836 49.7219 162.47 50.2926 162.99 51.0565C164.36 53.0715 164.64 52.9734 157.519 52.9734H151.283V54.8825V56.7915H157.547H163.811L163.667 57.5215C163.451 58.6175 162.401 59.955 161.158 60.7166C160.177 61.3185 159.815 61.4045 157.987 61.4719C155.583 61.5604 153.546 61.0198 152.151 59.9233L151.318 59.2684L149.934 60.7642L148.55 62.2602L149.265 62.9909C150.755 64.5141 153.688 65.6638 156.721 65.9144C163.122 66.4431 167.966 62.678 168.786 56.5364C169.115 54.0762 168.839 52.2861 167.782 50.0283C166.245 46.7422 163.586 44.8394 159.673 44.2245C158.009 43.963 157.619 43.9646 155.705 44.2402ZM172.144 54.8813V65.805L179.003 65.7231C186.913 65.6285 187.368 65.5405 189.166 63.7601C190.408 62.5302 190.877 61.0759 190.64 59.1949C190.396 57.2659 189.353 55.881 187.206 54.6379C186.816 54.4119 186.849 54.3367 187.641 53.6485C190.76 50.9356 189.905 46.1607 186.025 44.6267C184.805 44.1443 184.358 44.1095 178.437 44.036L172.144 43.9579V54.8813ZM200.199 44.5362C196.47 45.8395 194.122 48.3781 193.128 52.1783C192.475 54.6772 192.826 57.815 194.018 60.1454C196.956 65.8882 205.128 67.7402 210.44 63.8672C212.773 62.1657 214.335 59.5262 214.814 56.4751C215.674 50.9936 211.962 45.4541 206.61 44.2332C204.742 43.8072 201.9 43.9415 200.199 44.5362ZM183.446 48.4635C184.817 49.1559 185.275 50.7959 184.404 51.8922C183.766 52.6958 182.518 52.9734 179.544 52.9734H176.906V50.5028V48.0323H179.749C182.106 48.0323 182.739 48.1062 183.446 48.4635ZM206.699 49.1254C211.209 51.6373 210.567 59.6473 205.726 61.2525C203.028 62.1473 200.032 60.861 198.672 58.2238C198.181 57.2726 198.107 56.8331 198.107 54.8825C198.107 52.7836 198.153 52.5559 198.811 51.4068C199.198 50.7306 199.884 49.882 200.334 49.5213C202.044 48.1502 204.657 47.9878 206.699 49.1254ZM184.48 57.3292C185.441 57.727 185.976 58.4816 185.976 59.4391C185.976 61.3836 185.09 61.7816 180.477 61.9087L176.906 62.0069V59.5116V57.0161H180.314C182.717 57.0161 183.947 57.1087 184.48 57.3292Z" fill="#828282"/>
<path fill-rule="evenodd" clip-rule="evenodd" d="M27.8595 0.216238C25.4988 0.767398 22.6942 2.9489 21.5903 5.092C19.8949 8.38347 20.1049 11.2731 22.3275 15.2453C24.58 19.2708 30.0477 28.4965 30.1808 28.4965C30.3141 28.4965 30.6399 27.9705 32.963 24.0046C33.6505 22.8311 35.2507 20.1272 36.5191 17.9958C39.429 13.107 39.6886 12.5131 39.8546 10.3698C40.3015 4.5961 35.896 -0.0723689 30.0694 0.000849631C29.3212 0.0102827 28.3266 0.107084 27.8595 0.216238ZM7.79575 11.8746C3.28047 12.8231 0.0254697 16.727 0.000300393 21.2237C-0.0112639 23.2969 0.308454 24.4475 1.41273 26.3072C2.75713 28.5711 5.17928 30.2349 7.83997 30.7221C9.1626 30.9642 26.3281 31.087 26.3281 30.8544C26.3281 30.7926 24.7315 27.9878 22.7803 24.6218C20.8291 21.256 18.9491 17.9967 18.6027 17.379C17.1977 14.8741 15.3352 13.2026 12.9475 12.304C11.5426 11.7753 9.1982 11.5799 7.79575 11.8746ZM48.3798 11.9988C46.8333 12.4112 45.6943 12.9967 44.4524 14.0172C43.2715 14.9875 42.6149 15.9169 40.3308 19.8496C39.3982 21.4554 38.1012 23.6789 37.4483 24.7907C35.3078 28.4361 34.0376 30.6893 34.0376 30.8409C34.0376 30.9229 38.2975 30.9595 43.5044 30.9224C52.2477 30.86 53.0492 30.8218 53.9916 30.4234C56.4616 29.3788 58.1881 27.7605 59.3889 25.3639C60.1957 23.7537 60.2272 23.6021 60.2272 21.3211C60.2272 19.1174 60.176 18.8441 59.4966 17.4235C57.4561 13.1564 52.7148 10.8426 48.3798 11.9988ZM7.3944 35.3211C3.4079 36.2813 0.370357 39.8647 0.0882795 43.9396C-0.120784 46.9606 0.962856 49.6672 3.19 51.6868C7.88872 55.9481 14.8729 54.7764 18.256 49.1594C18.6653 48.48 20.2058 45.8522 21.6794 43.3199C23.1531 40.7876 24.8018 37.9795 25.3433 37.0795C25.885 36.1795 26.3281 35.3456 26.3281 35.2266C26.3281 34.8919 8.81273 34.9795 7.3944 35.3211ZM34.3296 35.8408C34.626 36.3103 35.1754 37.2502 35.5507 37.9296C35.9262 38.609 36.8787 40.2766 37.6676 41.6354C38.4565 42.9942 39.7621 45.2683 40.5691 46.6889C43.0736 51.0981 44.0162 52.1663 46.5088 53.4211C53.3075 56.8435 61.6966 50.6651 60.4036 43.1881C59.8651 40.0747 57.7547 37.3308 54.7907 35.8907L53.2086 35.1221L43.4999 35.0548L33.7909 34.9874L34.3296 35.8408ZM29.001 39.221C28.4402 40.1783 27.0305 42.5787 25.8687 44.5552C20.6575 53.4193 20.4325 53.9117 20.4325 56.4588C20.4325 60.2282 22.9377 63.8692 26.5548 65.3564C27.5759 65.7764 28.2357 65.8714 30.1946 65.8806C32.5138 65.8914 32.6401 65.866 34.3119 65.0476C36.3366 64.0565 37.9812 62.4207 38.9395 60.445C39.4558 59.3808 39.5827 58.7692 39.6623 56.9648C39.8063 53.7055 40.29 54.7431 31.7578 40.0096C30.954 38.6214 30.2343 37.4844 30.1586 37.4829C30.0828 37.4815 29.562 38.2638 29.001 39.221Z" fill="black"/>
</svg>
